<?xml version="1.0" encoding="UTF-8" standalone="no"?>
<!DOCTYPE svg PUBLIC "-//W3C//DTD SVG 1.1//EN"
 "http://www.w3.org/Graphics/SVG/1.1/DTD/svg11.dtd">
<!-- Generated by graphviz version 2.43.0 (0)
 -->
<!-- Title: G Pages: 1 -->
<svg width="288pt" height="305pt"
 viewBox="0.00 0.00 288.05 305.00" xmlns="http://www.w3.org/2000/svg" xmlns:xlink="http://www.w3.org/1999/xlink">
<g id="graph0" class="graph" transform="scale(1 1) rotate(0) translate(4 301)">
<title>G</title>
<polygon fill="white" stroke="transparent" points="-4,4 -4,-301 284.05,-301 284.05,4 -4,4"/>
<!-- 00 -->
<g id="node1" class="node">
<title>00</title>
<ellipse fill="none" stroke="black" cx="114.05" cy="-279" rx="27" ry="18"/>
<text text-anchor="middle" x="114.05" y="-275.3" font-family="Times,serif" font-size="14.00">00</text>
</g>
<!-- 00&#45;&gt;00 -->
<g id="edge2" class="edge">
<title>00&#45;&gt;00</title>
<path fill="none" stroke="black" d="M138.58,-286.75C149.56,-287.49 159.05,-284.91 159.05,-279 159.05,-275.03 154.77,-272.56 148.63,-271.59"/>
<polygon fill="black" stroke="black" points="148.7,-268.09 138.58,-271.25 148.46,-275.09 148.7,-268.09"/>
<text text-anchor="middle" x="168.55" y="-275.3" font-family="Times,serif" font-size="14.00">01</text>
</g>
<!-- 01 -->
<g id="node2" class="node">
<title>01</title>
<ellipse fill="none" stroke="black" cx="114.05" cy="-192" rx="27" ry="18"/>
<text text-anchor="middle" x="114.05" y="-188.3" font-family="Times,serif" font-size="14.00">01</text>
</g>
<!-- 00&#45;&gt;01 -->
<g id="edge1" class="edge">
<title>00&#45;&gt;01</title>
<path fill="none" stroke="black" d="M114.05,-260.8C114.05,-249.16 114.05,-233.55 114.05,-220.24"/>
<polygon fill="black" stroke="black" points="117.55,-220.18 114.05,-210.18 110.55,-220.18 117.55,-220.18"/>
<text text-anchor="middle" x="123.55" y="-231.8" font-family="Times,serif" font-size="14.00">00</text>
</g>
<!-- 11 -->
<g id="node3" class="node">
<title>11</title>
<ellipse fill="none" stroke="black" cx="96.05" cy="-105" rx="27" ry="18"/>
<text text-anchor="middle" x="96.05" y="-101.3" font-family="Times,serif" font-size="14.00">11</text>
</g>
<!-- 00&#45;&gt;11 -->
<g id="edge3" class="edge">
<title>00&#45;&gt;11</title>
<path fill="none" stroke="black" d="M88.99,-272.16C60.66,-263.92 16.81,-245.73 4.05,-210 -7.02,-178.99 5.64,-161.95 31.05,-141 41.1,-132.72 53.4,-125.5 64.59,-119.8"/>
<polygon fill="black" stroke="black" points="66.2,-122.91 73.66,-115.39 63.13,-116.62 66.2,-122.91"/>
<text text-anchor="middle" x="13.55" y="-188.3" font-family="Times,serif" font-size="14.00">10</text>
</g>
<!-- 10 -->
<g id="node4" class="node">
<title>10</title>
<ellipse fill="none" stroke="black" cx="196.05" cy="-18" rx="27" ry="18"/>
<text text-anchor="middle" x="196.05" y="-14.3" font-family="Times,serif" font-size="14.00">10</text>
</g>
<!-- 00&#45;&gt;10 -->
<g id="edge4" class="edge">
<title>00&#45;&gt;10</title>
<path fill="none" stroke="black" d="M138.55,-270.77C165.04,-261.48 205.9,-242.55 224.05,-210 253.64,-156.93 227.28,-83.23 209.37,-44.74"/>
<polygon fill="black" stroke="black" points="212.32,-42.79 204.82,-35.31 206.01,-45.83 212.32,-42.79"/>
<text text-anchor="middle" x="246.55" y="-144.8" font-family="Times,serif" font-size="14.00">11</text>
</g>
<!-- 01&#45;&gt;01 -->
<g id="edge5" class="edge">
<title>01&#45;&gt;01</title>
<path fill="none" stroke="black" d="M140.85,-195.93C150.83,-196.06 159.05,-194.75 159.05,-192 159.05,-190.28 155.84,-189.13 151,-188.53"/>
<polygon fill="black" stroke="black" points="151,-185.03 140.85,-188.07 150.68,-192.02 151,-185.03"/>
<text text-anchor="middle" x="168.55" y="-188.3" font-family="Times,serif" font-size="14.00">00</text>
</g>
<!-- 01&#45;&gt;01 -->
<g id="edge8" class="edge">
<title>01&#45;&gt;01</title>
<path fill="none" stroke="black" d="M139.2,-198.9C158.41,-201.4 178.05,-199.1 178.05,-192 178.05,-186.18 164.84,-183.59 149.48,-184.22"/>
<polygon fill="black" stroke="black" points="148.87,-180.76 139.2,-185.1 149.46,-187.73 148.87,-180.76"/>
<text text-anchor="middle" x="187.55" y="-188.3" font-family="Times,serif" font-size="14.00">11</text>
</g>
<!-- 01&#45;&gt;11 -->
<g id="edge6" class="edge">
<title>01&#45;&gt;11</title>
<path fill="none" stroke="black" d="M96.41,-178.35C89.64,-172.42 82.67,-164.73 79.05,-156 75.67,-147.84 77.24,-138.74 80.52,-130.57"/>
<polygon fill="black" stroke="black" points="83.7,-132.03 84.95,-121.51 77.41,-128.96 83.7,-132.03"/>
<text text-anchor="middle" x="88.55" y="-144.8" font-family="Times,serif" font-size="14.00">01</text>
</g>
<!-- 01&#45;&gt;11 -->
<g id="edge7" class="edge">
<title>01&#45;&gt;11</title>
<path fill="none" stroke="black" d="M110.41,-173.8C107.93,-162.09 104.6,-146.34 101.76,-132.97"/>
<polygon fill="black" stroke="black" points="105.12,-131.94 99.63,-122.89 98.28,-133.39 105.12,-131.94"/>
<text text-anchor="middle" x="115.55" y="-144.8" font-family="Times,serif" font-size="14.00">10</text>
</g>
<!-- 11&#45;&gt;00 -->
<g id="edge16" class="edge">
<title>11&#45;&gt;00</title>
<path fill="none" stroke="black" d="M83.92,-121.15C69.26,-141.39 47.87,-178.38 59.05,-210 65.43,-228.02 78.83,-244.76 90.81,-257.12"/>
<polygon fill="black" stroke="black" points="88.43,-259.69 98.01,-264.22 93.35,-254.71 88.43,-259.69"/>
<text text-anchor="middle" x="68.55" y="-188.3" font-family="Times,serif" font-size="14.00">11</text>
</g>
<!-- 11&#45;&gt;01 -->
<g id="edge15" class="edge">
<title>11&#45;&gt;01</title>
<path fill="none" stroke="black" d="M113.05,-119.16C119.33,-125.08 125.72,-132.62 129.05,-141 132.19,-148.9 131.01,-157.73 128.26,-165.75"/>
<polygon fill="black" stroke="black" points="125.02,-164.43 124.31,-175 131.46,-167.18 125.02,-164.43"/>
<text text-anchor="middle" x="139.55" y="-144.8" font-family="Times,serif" font-size="14.00">10</text>
</g>
<!-- 11&#45;&gt;11 -->
<g id="edge13" class="edge">
<title>11&#45;&gt;11</title>
<path fill="none" stroke="black" d="M120.58,-112.75C131.56,-113.49 141.05,-110.91 141.05,-105 141.05,-101.03 136.77,-98.56 130.63,-97.59"/>
<polygon fill="black" stroke="black" points="130.7,-94.09 120.58,-97.25 130.46,-101.09 130.7,-94.09"/>
<text text-anchor="middle" x="150.55" y="-101.3" font-family="Times,serif" font-size="14.00">00</text>
</g>
<!-- 11&#45;&gt;10 -->
<g id="edge14" class="edge">
<title>11&#45;&gt;10</title>
<path fill="none" stroke="black" d="M112.12,-90.34C128.37,-76.53 153.69,-55.01 172.27,-39.21"/>
<polygon fill="black" stroke="black" points="174.67,-41.77 180.03,-32.62 170.14,-36.43 174.67,-41.77"/>
<text text-anchor="middle" x="160.55" y="-57.8" font-family="Times,serif" font-size="14.00">01</text>
</g>
<!-- 10&#45;&gt;00 -->
<g id="edge9" class="edge">
<title>10&#45;&gt;00</title>
<path fill="none" stroke="black" d="M211.93,-32.93C218.15,-38.96 224.99,-46.38 230.05,-54 238.86,-67.27 238.67,-72 244.05,-87 254.69,-116.63 264.83,-124.88 260.05,-156 256.23,-180.87 255.01,-187.86 243.05,-210 234.04,-226.67 231.61,-232.18 216.05,-243 196.2,-256.81 170.41,-265.6 149.73,-270.91"/>
<polygon fill="black" stroke="black" points="148.65,-267.57 139.74,-273.31 150.28,-274.38 148.65,-267.57"/>
<text text-anchor="middle" x="270.55" y="-144.8" font-family="Times,serif" font-size="14.00">00</text>
</g>
<!-- 10&#45;&gt;01 -->
<g id="edge12" class="edge">
<title>10&#45;&gt;01</title>
<path fill="none" stroke="black" d="M194.37,-36.27C190.9,-64.02 180.79,-119.16 153.05,-156 149.03,-161.34 144.1,-166.5 139.12,-171.14"/>
<polygon fill="black" stroke="black" points="136.57,-168.73 131.37,-177.96 141.19,-173.98 136.57,-168.73"/>
<text text-anchor="middle" x="193.55" y="-101.3" font-family="Times,serif" font-size="14.00">11</text>
</g>
<!-- 10&#45;&gt;11 -->
<g id="edge10" class="edge">
<title>10&#45;&gt;11</title>
<path fill="none" stroke="black" d="M170.74,-24.39C153.04,-29.36 129.98,-38.39 115.05,-54 108.94,-60.39 104.74,-68.95 101.89,-77.18"/>
<polygon fill="black" stroke="black" points="98.5,-76.3 99.03,-86.88 105.21,-78.28 98.5,-76.3"/>
<text text-anchor="middle" x="124.55" y="-57.8" font-family="Times,serif" font-size="14.00">01</text>
</g>
<!-- 10&#45;&gt;10 -->
<g id="edge11" class="edge">
<title>10&#45;&gt;10</title>
<path fill="none" stroke="black" d="M220.58,-25.75C231.56,-26.49 241.05,-23.91 241.05,-18 241.05,-14.03 236.77,-11.56 230.63,-10.59"/>
<polygon fill="black" stroke="black" points="230.7,-7.09 220.58,-10.25 230.46,-14.09 230.7,-7.09"/>
<text text-anchor="middle" x="250.55" y="-14.3" font-family="Times,serif" font-size="14.00">10</text>
</g>
</g>
</svg>
